<svg id="Layer_1" data-name="Layer 1" xmlns="http://www.w3.org/2000/svg" viewBox="0 0 167.76 168.02"><defs><style>.cls-1{fill:#fff;}</style></defs><title>Logo</title><path class="cls-1" d="M123.46,100.7C112.74,94.82,98.44,89.6,83.2,86s-30.35-5.35-42.57-4.92c-9.76.35-17.57.84-17.57,3.19s5.71,6,14.27,10.73c10.73,5.87,25,11.09,40.26,14.7s30.35,5.36,42.57,4.93c9.76-.35,17.58-1.37,17.58-3.19S132,105.38,123.46,100.7Z"/><path class="cls-1" d="M114.09,125.65c-12,.73-23.9-1.56-39.06-5.15-15.6-3.7-29.75-8.91-38.68-14.26-3.4-2-10-6.57-11.32-5.71-1.5,1,1.87,7.16,3.43,10.17,8.26,16,22.44,28.2,41.16,32.63,17.3,4.1,37.08-1.67,48.46-8.57,4-2.45,11.54-7.76,10.59-9.68S123,125.11,114.09,125.65Z"/><path class="cls-1" d="M97.71,24.76A61,61,0,0,0,24.38,70c-.17.73-1.58,5.21,3,3.44,8-3.07,33.21-4.21,58.36,1.75S131.86,91.41,139.91,99c2.15,2,2.87-.16,3-.89A61,61,0,0,0,97.71,24.76Z"/><path class="cls-1" d="M83.67.38a83.67,83.67,0,1,0,83.66,83.67A83.67,83.67,0,0,0,83.67.38ZM67.19,153.59a71.47,71.47,0,1,1,86-53.07A71.47,71.47,0,0,1,67.19,153.59Z"/></svg>